<?xml version="1.0" encoding="utf-8"?>
<!-- Generated by Mocodo 4.2.11 -->
<svg width="716" height="305" viewBox="0 0 716 305" xmlns="http://www.w3.org/2000/svg">
<rect x="0" y="0" width="716" height="305" fill="#f7f7f7" stroke="none" stroke-width="0"/>

<!-- Association TRAVAILLER -->
<g>
	<line x1="345" y1="60" x2="189" y2="60" stroke="#5aae61" stroke-width="2"/>
	<line x1="59" y1="60" x2="189" y2="60" stroke="#5aae61" stroke-width="2"/>
	<g>
		<path d="M220 35 a14 14 90 0 1 14 14 V60 h-90 V49 a14 14 90 0 1 14 -14" fill="#a6dba0" stroke="#a6dba0" stroke-width="0"/>
		<path d="M234 60 v11 a14 14 90 0 1 -14 14 H158 a14 14 90 0 1 -14 -14 V60 H90" fill="#d9f0d3" stroke="#d9f0d3" stroke-width="0"/>
		<rect x="144" y="35" width="90" height="50" fill="none" rx="14" stroke="#5aae61" stroke-width="2"/>
		<line x1="144" y1="60" x2="234" y2="60" stroke="#5aae61" stroke-width="1"/>
		<text x="151" y="52.75" fill="#000000" font-family="Verdana" font-size="12">TRAVAILLER</text>
	</g>
	<text x="268" y="77" fill="#762a83" font-family="Verdana" font-size="12">0,N</text>
	<text x="114" y="77" fill="#762a83" font-family="Verdana" font-size="12">0,N</text>
</g>

<!-- Association DEPOSER -->
<g>
	<line x1="59" y1="178" x2="515" y2="60" stroke="#5aae61" stroke-width="2"/>
	<line x1="345" y1="60" x2="515" y2="60" stroke="#5aae61" stroke-width="2"/>
	<line x1="515" y1="178" x2="515" y2="60" stroke="#5aae61" stroke-width="2"/>
	<g>
		<path d="M538 35 a14 14 90 0 1 14 14 V60 h-74 V49 a14 14 90 0 1 14 -14" fill="#a6dba0" stroke="#a6dba0" stroke-width="0"/>
		<path d="M552 60 v11 a14 14 90 0 1 -14 14 H492 a14 14 90 0 1 -14 -14 V60 H74" fill="#d9f0d3" stroke="#d9f0d3" stroke-width="0"/>
		<rect x="478" y="35" width="74" height="50" fill="none" rx="14" stroke="#5aae61" stroke-width="2"/>
		<line x1="478" y1="60" x2="552" y2="60" stroke="#5aae61" stroke-width="1"/>
		<text x="486" y="52.75" fill="#000000" font-family="Verdana" font-size="12">DEPOSER</text>
	</g>
	<text x="104" y="182.65" fill="#762a83" font-family="Verdana" font-size="12">0,N</text>
	<text x="400" y="77" fill="#762a83" font-family="Verdana" font-size="12">0,N</text>
	<text x="520" y="102" fill="#762a83" font-family="Verdana" font-size="12">0,N</text>
</g>

<!-- Association CORRESPONDRE -->
<g>
	<line x1="59" y1="178" x2="189" y2="178" stroke="#5aae61" stroke-width="2"/>
	<line x1="345" y1="178" x2="189" y2="178" stroke="#5aae61" stroke-width="2"/>
	<g>
		<path d="M233 153 a14 14 90 0 1 14 14 V178 h-116 V167 a14 14 90 0 1 14 -14" fill="#a6dba0" stroke="#a6dba0" stroke-width="0"/>
		<path d="M247 178 v11 a14 14 90 0 1 -14 14 H145 a14 14 90 0 1 -14 -14 V178 H116" fill="#d9f0d3" stroke="#d9f0d3" stroke-width="0"/>
		<rect x="131" y="153" width="116" height="50" fill="none" rx="14" stroke="#5aae61" stroke-width="2"/>
		<line x1="131" y1="178" x2="247" y2="178" stroke="#5aae61" stroke-width="1"/>
		<text x="138" y="170.75" fill="#000000" font-family="Verdana" font-size="12">CORRESPONDRE</text>
	</g>
	<text x="104" y="195" fill="#762a83" font-family="Verdana" font-size="12">1,1</text>
	<text x="252" y="195" fill="#762a83" font-family="Verdana" font-size="12">0,N</text>
</g>

<!-- Association TRAITER -->
<g>
	<line x1="515" y1="178" x2="345" y2="271" stroke="#5aae61" stroke-width="2"/>
	<line x1="663" y1="178" x2="345" y2="271" stroke="#5aae61" stroke-width="2"/>
	<line x1="345" y1="178" x2="345" y2="271" stroke="#5aae61" stroke-width="2"/>
	<g>
		<path d="M371 246 a14 14 90 0 1 14 14 V271 h-80 V260 a14 14 90 0 1 14 -14" fill="#a6dba0" stroke="#a6dba0" stroke-width="0"/>
		<path d="M385 271 v11 a14 14 90 0 1 -14 14 H319 a14 14 90 0 1 -14 -14 V271 H80" fill="#d9f0d3" stroke="#d9f0d3" stroke-width="0"/>
		<rect x="305" y="246" width="80" height="50" fill="none" rx="14" stroke="#5aae61" stroke-width="2"/>
		<line x1="305" y1="271" x2="385" y2="271" stroke="#5aae61" stroke-width="1"/>
		<text x="319" y="263.75" fill="#000000" font-family="Verdana" font-size="12">TRAITER</text>
		<text x="312" y="288.8" fill="#000000" font-family="Verdana" font-size="12">qtecollecte</text>
	</g>
	<text x="416" y="213.65" fill="#762a83" font-family="Verdana" font-size="12">0,N</text>
	<text x="592" y="185.14" fill="#762a83" font-family="Verdana" font-size="12">0,N</text>
	<text x="350" y="229" fill="#762a83" font-family="Verdana" font-size="12">0,N</text>
</g>

<!-- Entity ENTREPRISE -->
<g>
	<g>
		<rect x="9" y="26" width="100" height="25" fill="#c2a5cf" stroke="none" stroke-width="0" opacity="1"/>
		<rect x="9" y="51" width="100" height="43" fill="#e7d4e8" stroke="none" stroke-width="0" opacity="1"/>
		<rect x="9" y="26" width="100" height="68" fill="none" stroke="#9970ab" stroke-width="2" opacity="1"/>
		<line x1="9" y1="51" x2="109" y2="51" stroke="#9970ab" stroke-width="1"/>
	</g>
	<text x="21" y="43.75" fill="#000000" font-family="Verdana" font-size="12">ENTREPRISE</text>
	<text x="14" y="68.8" fill="#000000" font-family="Verdana" font-size="12">idEntreprise</text>
	<line x1="14" y1="71" x2="87" y2="71" stroke="#000000" stroke-width="1"/>
	<text x="14" y="85.8" fill="#000000" font-family="Verdana" font-size="12">nomEntreprise</text>
</g>

<!-- Entity UTILISATEUR -->
<g>
	<g>
		<rect x="295" y="9" width="100" height="25" fill="#c2a5cf" stroke="none" stroke-width="0" opacity="1"/>
		<rect x="295" y="34" width="100" height="77" fill="#e7d4e8" stroke="none" stroke-width="0" opacity="1"/>
		<rect x="295" y="9" width="100" height="102" fill="none" stroke="#9970ab" stroke-width="2" opacity="1"/>
		<line x1="295" y1="34" x2="395" y2="34" stroke="#9970ab" stroke-width="1"/>
	</g>
	<text x="304" y="26.75" fill="#000000" font-family="Verdana" font-size="12">UTILISATEUR</text>
	<text x="300" y="51.8" fill="#000000" font-family="Verdana" font-size="12">idUtilisateur</text>
	<line x1="300" y1="54" x2="373" y2="54" stroke="#000000" stroke-width="1"/>
	<text x="300" y="68.8" fill="#000000" font-family="Verdana" font-size="12">nomUtilisateur</text>
	<text x="300" y="85.8" fill="#000000" font-family="Verdana" font-size="12">mail</text>
	<text x="300" y="102.8" fill="#000000" font-family="Verdana" font-size="12">numtel</text>
</g>

<!-- Entity DECHET -->
<g>
	<g>
		<rect x="19" y="136" width="80" height="25" fill="#c2a5cf" stroke="none" stroke-width="0" opacity="1"/>
		<rect x="19" y="161" width="80" height="59" fill="#e7d4e8" stroke="none" stroke-width="0" opacity="1"/>
		<rect x="19" y="136" width="80" height="84" fill="none" stroke="#9970ab" stroke-width="2" opacity="1"/>
		<line x1="19" y1="161" x2="99" y2="161" stroke="#9970ab" stroke-width="1"/>
	</g>
	<text x="34" y="153.75" fill="#000000" font-family="Verdana" font-size="12">DECHET</text>
	<text x="24" y="178.8" fill="#000000" font-family="Verdana" font-size="12">idDechet</text>
	<line x1="24" y1="181" x2="78" y2="181" stroke="#000000" stroke-width="1"/>
	<text x="24" y="195.8" fill="#000000" font-family="Verdana" font-size="12">nomDechet</text>
</g>

<!-- Entity CATEGORIEDECHET -->
<g>
	<g>
		<rect x="279" y="144" width="132" height="25" fill="#c2a5cf" stroke="none" stroke-width="0" opacity="1"/>
		<rect x="279" y="169" width="132" height="43" fill="#e7d4e8" stroke="none" stroke-width="0" opacity="1"/>
		<rect x="279" y="144" width="132" height="68" fill="none" stroke="#9970ab" stroke-width="2" opacity="1"/>
		<line x1="279" y1="169" x2="411" y2="169" stroke="#9970ab" stroke-width="1"/>
	</g>
	<text x="284" y="161.75" fill="#000000" font-family="Verdana" font-size="12">CATEGORIEDECHET</text>
	<text x="284" y="186.8" fill="#000000" font-family="Verdana" font-size="12">IdType</text>
	<line x1="284" y1="189" x2="327" y2="189" stroke="#000000" stroke-width="1"/>
	<text x="284" y="203.8" fill="#000000" font-family="Verdana" font-size="12">NomType</text>
</g>

<!-- Entity POINT_DE_COLLECTE -->
<g>
	<g>
		<rect x="443" y="110" width="144" height="25" fill="#c2a5cf" stroke="none" stroke-width="0" opacity="1"/>
		<rect x="443" y="135" width="144" height="111" fill="#e7d4e8" stroke="none" stroke-width="0" opacity="1"/>
		<rect x="443" y="110" width="144" height="136" fill="none" stroke="#9970ab" stroke-width="2" opacity="1"/>
		<line x1="443" y1="135" x2="587" y2="135" stroke="#9970ab" stroke-width="1"/>
	</g>
	<text x="448" y="127.75" fill="#000000" font-family="Verdana" font-size="12">POINT_DE_COLLECTE</text>
	<text x="448" y="152.8" fill="#000000" font-family="Verdana" font-size="12">Idptscollecte</text>
	<line x1="448" y1="155" x2="525" y2="155" stroke="#000000" stroke-width="1"/>
	<text x="448" y="169.8" fill="#000000" font-family="Verdana" font-size="12">Adresse</text>
	<text x="448" y="186.8" fill="#000000" font-family="Verdana" font-size="12">pos_x</text>
	<text x="448" y="203.8" fill="#000000" font-family="Verdana" font-size="12">pos_y</text>
	<text x="448" y="220.8" fill="#000000" font-family="Verdana" font-size="12">qte_max</text>
	<text x="448" y="237.8" fill="#000000" font-family="Verdana" font-size="12">qte</text>
</g>

<!-- Entity COLLECTE -->
<g>
	<g>
		<rect x="619" y="144" width="88" height="25" fill="#c2a5cf" stroke="none" stroke-width="0" opacity="1"/>
		<rect x="619" y="169" width="88" height="43" fill="#e7d4e8" stroke="none" stroke-width="0" opacity="1"/>
		<rect x="619" y="144" width="88" height="68" fill="none" stroke="#9970ab" stroke-width="2" opacity="1"/>
		<line x1="619" y1="169" x2="707" y2="169" stroke="#9970ab" stroke-width="1"/>
	</g>
	<text x="632" y="161.75" fill="#000000" font-family="Verdana" font-size="12">COLLECTE</text>
	<text x="624" y="186.8" fill="#000000" font-family="Verdana" font-size="12">idCollecte</text>
	<line x1="624" y1="189" x2="683" y2="189" stroke="#000000" stroke-width="1"/>
	<text x="624" y="203.8" fill="#000000" font-family="Verdana" font-size="12">DateCollecte</text>
</g>
</svg>