<?xml version="1.0" encoding="utf-8"?>
<!-- Generated by Mocodo 4.2.11 -->
<svg width="444" height="340" viewBox="0 0 444 340" xmlns="http://www.w3.org/2000/svg">
<rect x="0" y="0" width="444" height="340" fill="#f7f7f7" stroke="none" stroke-width="0"/>

<!-- Association CORRESPONDRE -->
<g>
	<line x1="207" y1="136" x2="207" y2="43" stroke="#e08214" stroke-width="2"/>
	<line x1="363" y1="43" x2="207" y2="43" stroke="#e08214" stroke-width="2"/>
	<g>
		<path d="M251 18 a14 14 90 0 1 14 14 V43 h-116 V32 a14 14 90 0 1 14 -14" fill="#fdb863" stroke="#fdb863" stroke-width="0"/>
		<path d="M265 43 v11 a14 14 90 0 1 -14 14 H163 a14 14 90 0 1 -14 -14 V43 H116" fill="#fee0b6" stroke="#fee0b6" stroke-width="0"/>
		<rect x="149" y="18" width="116" height="50" fill="none" rx="14" stroke="#e08214" stroke-width="2"/>
		<line x1="149" y1="43" x2="265" y2="43" stroke="#e08214" stroke-width="1"/>
		<text x="156" y="35.75" fill="#000000" font-family="Verdana" font-size="12">CORRESPONDRE</text>
	</g>
	<text x="212" y="86" fill="#542788" font-family="Verdana" font-size="12">1,1</text>
	<text x="270" y="60" fill="#542788" font-family="Verdana" font-size="12">0,N</text>
</g>

<!-- Association TRAVAILLER -->
<g>
	<line x1="63" y1="263" x2="63" y2="136" stroke="#e08214" stroke-width="2"/>
	<line x1="63" y1="43" x2="63" y2="136" stroke="#e08214" stroke-width="2"/>
	<g>
		<path d="M94 111 a14 14 90 0 1 14 14 V136 h-90 V125 a14 14 90 0 1 14 -14" fill="#fdb863" stroke="#fdb863" stroke-width="0"/>
		<path d="M108 136 v11 a14 14 90 0 1 -14 14 H32 a14 14 90 0 1 -14 -14 V136 H90" fill="#fee0b6" stroke="#fee0b6" stroke-width="0"/>
		<rect x="18" y="111" width="90" height="50" fill="none" rx="14" stroke="#e08214" stroke-width="2"/>
		<line x1="18" y1="136" x2="108" y2="136" stroke="#e08214" stroke-width="1"/>
		<text x="25" y="128.75" fill="#000000" font-family="Verdana" font-size="12">TRAVAILLER</text>
	</g>
	<text x="68" y="187" fill="#542788" font-family="Verdana" font-size="12">0,1</text>
	<text x="68" y="94" fill="#542788" font-family="Verdana" font-size="12">0,N</text>
</g>

<!-- Association TRAITER -->
<g>
	<line x1="363" y1="263" x2="363" y2="136" stroke="#e08214" stroke-width="2"/>
	<line x1="363" y1="43" x2="363" y2="136" stroke="#e08214" stroke-width="2"/>
	<g>
		<path d="M397 102 a14 14 90 0 1 14 14 V127 h-96 V116 a14 14 90 0 1 14 -14" fill="#fdb863" stroke="#fdb863" stroke-width="0"/>
		<path d="M411 127 v29 a14 14 90 0 1 -14 14 H329 a14 14 90 0 1 -14 -14 V127 H96" fill="#fee0b6" stroke="#fee0b6" stroke-width="0"/>
		<rect x="315" y="102" width="96" height="68" fill="none" rx="14" stroke="#e08214" stroke-width="2"/>
		<line x1="315" y1="127" x2="411" y2="127" stroke="#e08214" stroke-width="1"/>
		<text x="337" y="119.75" fill="#000000" font-family="Verdana" font-size="12">TRAITER</text>
		<text x="322" y="144.8" fill="#000000" font-family="Verdana" font-size="12">qte_collecte</text>
		<text x="322" y="161.8" fill="#000000" font-family="Verdana" font-size="12">date_collecte</text>
	</g>
	<text x="368" y="187" fill="#542788" font-family="Verdana" font-size="12">0,N</text>
	<text x="368" y="94" fill="#542788" font-family="Verdana" font-size="12">0,N</text>
</g>

<!-- Association DEPOSER -->
<g>
	<line x1="207" y1="136" x2="207" y2="263" stroke="#e08214" stroke-width="2"/>
	<line x1="63" y1="263" x2="207" y2="263" stroke="#e08214" stroke-width="2"/>
	<line x1="363" y1="263" x2="207" y2="263" stroke="#e08214" stroke-width="2"/>
	<g>
		<path d="M230 238 a14 14 90 0 1 14 14 V263 h-74 V252 a14 14 90 0 1 14 -14" fill="#fdb863" stroke="#fdb863" stroke-width="0"/>
		<path d="M244 263 v11 a14 14 90 0 1 -14 14 H184 a14 14 90 0 1 -14 -14 V263 H74" fill="#fee0b6" stroke="#fee0b6" stroke-width="0"/>
		<rect x="170" y="238" width="74" height="50" fill="none" rx="14" stroke="#e08214" stroke-width="2"/>
		<line x1="170" y1="263" x2="244" y2="263" stroke="#e08214" stroke-width="1"/>
		<text x="178" y="255.75" fill="#000000" font-family="Verdana" font-size="12">DEPOSER</text>
	</g>
	<text x="212" y="195" fill="#542788" font-family="Verdana" font-size="12">0,N</text>
	<text x="122" y="280" fill="#542788" font-family="Verdana" font-size="12">0,N</text>
	<text x="264" y="280" fill="#542788" font-family="Verdana" font-size="12">0,N</text>
</g>

<!-- Entity ENTREPRISE -->
<g>
	<g>
		<rect x="9" y="9" width="108" height="25" fill="#b2abd2" stroke="none" stroke-width="0" opacity="1"/>
		<rect x="9" y="34" width="108" height="43" fill="#d8daeb" stroke="none" stroke-width="0" opacity="1"/>
		<rect x="9" y="9" width="108" height="68" fill="none" stroke="#8073ac" stroke-width="2" opacity="1"/>
		<line x1="9" y1="34" x2="117" y2="34" stroke="#8073ac" stroke-width="1"/>
	</g>
	<text x="25" y="26.75" fill="#000000" font-family="Verdana" font-size="12">ENTREPRISE</text>
	<text x="14" y="51.8" fill="#000000" font-family="Verdana" font-size="12">id_Entreprise</text>
	<line x1="14" y1="54" x2="95" y2="54" stroke="#000000" stroke-width="1"/>
	<text x="14" y="68.8" fill="#000000" font-family="Verdana" font-size="12">nom_Entreprise</text>
</g>

<!-- Entity CATEGORIEDECHET -->
<g>
	<g>
		<rect x="297" y="9" width="132" height="25" fill="#b2abd2" stroke="none" stroke-width="0" opacity="1"/>
		<rect x="297" y="34" width="132" height="43" fill="#d8daeb" stroke="none" stroke-width="0" opacity="1"/>
		<rect x="297" y="9" width="132" height="68" fill="none" stroke="#8073ac" stroke-width="2" opacity="1"/>
		<line x1="297" y1="34" x2="429" y2="34" stroke="#8073ac" stroke-width="1"/>
	</g>
	<text x="302" y="26.75" fill="#000000" font-family="Verdana" font-size="12">CATEGORIEDECHET</text>
	<text x="302" y="51.8" fill="#000000" font-family="Verdana" font-size="12">id_Type</text>
	<line x1="302" y1="54" x2="351" y2="54" stroke="#000000" stroke-width="1"/>
	<text x="302" y="68.8" fill="#000000" font-family="Verdana" font-size="12">nom_ Type</text>
</g>

<!-- Entity DECHET -->
<g>
	<g>
		<rect x="163" y="94" width="88" height="25" fill="#b2abd2" stroke="none" stroke-width="0" opacity="1"/>
		<rect x="163" y="119" width="88" height="59" fill="#d8daeb" stroke="none" stroke-width="0" opacity="1"/>
		<rect x="163" y="94" width="88" height="84" fill="none" stroke="#8073ac" stroke-width="2" opacity="1"/>
		<line x1="163" y1="119" x2="251" y2="119" stroke="#8073ac" stroke-width="1"/>
	</g>
	<text x="182" y="111.75" fill="#000000" font-family="Verdana" font-size="12">DECHET</text>
	<text x="168" y="136.8" fill="#000000" font-family="Verdana" font-size="12">id_Dechet</text>
	<line x1="168" y1="139" x2="230" y2="139" stroke="#000000" stroke-width="1"/>
	<text x="168" y="153.8" fill="#000000" font-family="Verdana" font-size="12">nom_Dechet</text>
	<text x="168" y="170.8" fill="#000000" font-family="Verdana" font-size="12">qte</text>
</g>

<!-- Entity UTILISATEUR -->
<g>
	<g>
		<rect x="9" y="195" width="108" height="25" fill="#b2abd2" stroke="none" stroke-width="0" opacity="1"/>
		<rect x="9" y="220" width="108" height="111" fill="#d8daeb" stroke="none" stroke-width="0" opacity="1"/>
		<rect x="9" y="195" width="108" height="136" fill="none" stroke="#8073ac" stroke-width="2" opacity="1"/>
		<line x1="9" y1="220" x2="117" y2="220" stroke="#8073ac" stroke-width="1"/>
	</g>
	<text x="22" y="212.75" fill="#000000" font-family="Verdana" font-size="12">UTILISATEUR</text>
	<text x="14" y="237.8" fill="#000000" font-family="Verdana" font-size="12">id_Utilisateur</text>
	<line x1="14" y1="240" x2="95" y2="240" stroke="#000000" stroke-width="1"/>
	<text x="14" y="254.8" fill="#000000" font-family="Verdana" font-size="12">nom_Utilisateur</text>
	<text x="14" y="271.8" fill="#000000" font-family="Verdana" font-size="12">mail</text>
	<text x="14" y="288.8" fill="#000000" font-family="Verdana" font-size="12">numtel</text>
	<text x="14" y="305.8" fill="#000000" font-family="Verdana" font-size="12">motdepasse</text>
	<text x="14" y="322.8" fill="#000000" font-family="Verdana" font-size="12">nom_role</text>
</g>

<!-- Entity POINT_DE_COLLECTE -->
<g>
	<g>
		<rect x="291" y="195" width="144" height="25" fill="#b2abd2" stroke="none" stroke-width="0" opacity="1"/>
		<rect x="291" y="220" width="144" height="111" fill="#d8daeb" stroke="none" stroke-width="0" opacity="1"/>
		<rect x="291" y="195" width="144" height="136" fill="none" stroke="#8073ac" stroke-width="2" opacity="1"/>
		<line x1="291" y1="220" x2="435" y2="220" stroke="#8073ac" stroke-width="1"/>
	</g>
	<text x="296" y="212.75" fill="#000000" font-family="Verdana" font-size="12">POINT_DE_COLLECTE</text>
	<text x="296" y="237.8" fill="#000000" font-family="Verdana" font-size="12">id_point_collecte</text>
	<line x1="296" y1="240" x2="399" y2="240" stroke="#000000" stroke-width="1"/>
	<text x="296" y="254.8" fill="#000000" font-family="Verdana" font-size="12">adresse</text>
	<text x="296" y="271.8" fill="#000000" font-family="Verdana" font-size="12">nom_pt_collecte</text>
	<text x="296" y="288.8" fill="#000000" font-family="Verdana" font-size="12">pos_x</text>
	<text x="296" y="305.8" fill="#000000" font-family="Verdana" font-size="12">pos_y</text>
	<text x="296" y="322.8" fill="#000000" font-family="Verdana" font-size="12">qte_max</text>
</g>
</svg>