<?xml version="1.0" encoding="utf-8"?>
<!-- Generated by Mocodo 4.2.11 -->
<svg width="642" height="424" viewBox="0 0 642 424" xmlns="http://www.w3.org/2000/svg">
<rect x="0" y="0" width="642" height="424" fill="#f7f7f7" stroke="none" stroke-width="0"/>

<!-- Association COLLECTER -->
<g>
	<line x1="325" y1="77" x2="177" y2="77" stroke="#e08214" stroke-width="2"/>
	<line x1="177" y1="238" x2="177" y2="77" stroke="#e08214" stroke-width="2"/>
	<line x1="55" y1="77" x2="177" y2="77" stroke="#e08214" stroke-width="2"/>
	<g>
		<path d="M207 52 a14 14 90 0 1 14 14 V77 h-88 V66 a14 14 90 0 1 14 -14" fill="#fdb863" stroke="#fdb863" stroke-width="0"/>
		<path d="M221 77 v11 a14 14 90 0 1 -14 14 H147 a14 14 90 0 1 -14 -14 V77 H88" fill="#fee0b6" stroke="#fee0b6" stroke-width="0"/>
		<rect x="133" y="52" width="88" height="50" fill="none" rx="14" stroke="#e08214" stroke-width="2"/>
		<line x1="133" y1="77" x2="221" y2="77" stroke="#e08214" stroke-width="1"/>
		<text x="141" y="69.75" fill="#000000" font-family="Verdana" font-size="12">COLLECTER</text>
		<text x="140" y="94.8" fill="#000000" font-family="Verdana" font-size="12">qte_collecte</text>
	</g>
	<text x="226" y="94" fill="#542788" font-family="Verdana" font-size="12">0,N</text>
	<text x="182" y="196" fill="#542788" font-family="Verdana" font-size="12">0,N</text>
	<text x="106" y="94" fill="#542788" font-family="Verdana" font-size="12">0,N</text>
</g>

<!-- Association DEPOSER -->
<g>
	<line x1="325" y1="373" x2="325" y2="238" stroke="#e08214" stroke-width="2"/>
	<line x1="448" y1="238" x2="325" y2="238" stroke="#e08214" stroke-width="2"/>
	<line x1="325" y1="77" x2="325" y2="238" stroke="#e08214" stroke-width="2"/>
	<g>
		<path d="M348 213 a14 14 90 0 1 14 14 V238 h-74 V227 a14 14 90 0 1 14 -14" fill="#fdb863" stroke="#fdb863" stroke-width="0"/>
		<path d="M362 238 v11 a14 14 90 0 1 -14 14 H302 a14 14 90 0 1 -14 -14 V238 H74" fill="#fee0b6" stroke="#fee0b6" stroke-width="0"/>
		<rect x="288" y="213" width="74" height="50" fill="none" rx="14" stroke="#e08214" stroke-width="2"/>
		<line x1="288" y1="238" x2="362" y2="238" stroke="#e08214" stroke-width="1"/>
		<text x="296" y="230.75" fill="#000000" font-family="Verdana" font-size="12">DEPOSER</text>
	</g>
	<text x="330" y="323" fill="#542788" font-family="Verdana" font-size="12">0,N</text>
	<text x="367" y="255" fill="#542788" font-family="Verdana" font-size="12">0,N</text>
	<text x="330" y="162" fill="#542788" font-family="Verdana" font-size="12">0,N</text>
</g>

<!-- Association TRAVAILLER -->
<g>
	<line x1="448" y1="238" x2="579" y2="238" stroke="#e08214" stroke-width="2"/>
	<line x1="579" y1="373" x2="579" y2="238" stroke="#e08214" stroke-width="2"/>
	<g>
		<path d="M610 213 a14 14 90 0 1 14 14 V238 h-90 V227 a14 14 90 0 1 14 -14" fill="#fdb863" stroke="#fdb863" stroke-width="0"/>
		<path d="M624 238 v11 a14 14 90 0 1 -14 14 H548 a14 14 90 0 1 -14 -14 V238 H90" fill="#fee0b6" stroke="#fee0b6" stroke-width="0"/>
		<rect x="534" y="213" width="90" height="50" fill="none" rx="14" stroke="#e08214" stroke-width="2"/>
		<line x1="534" y1="238" x2="624" y2="238" stroke="#e08214" stroke-width="1"/>
		<text x="541" y="230.75" fill="#000000" font-family="Verdana" font-size="12">TRAVAILLER</text>
	</g>
	<text x="507" y="255" fill="#542788" font-family="Verdana" font-size="12">0,1</text>
	<text x="584" y="331" fill="#542788" font-family="Verdana" font-size="12">0,N</text>
</g>

<!-- Association CORRESPONDRE -->
<g>
	<line x1="325" y1="373" x2="177" y2="373" stroke="#e08214" stroke-width="2"/>
	<line x1="177" y1="238" x2="177" y2="373" stroke="#e08214" stroke-width="2"/>
	<g>
		<path d="M221 348 a14 14 90 0 1 14 14 V373 h-116 V362 a14 14 90 0 1 14 -14" fill="#fdb863" stroke="#fdb863" stroke-width="0"/>
		<path d="M235 373 v11 a14 14 90 0 1 -14 14 H133 a14 14 90 0 1 -14 -14 V373 H116" fill="#fee0b6" stroke="#fee0b6" stroke-width="0"/>
		<rect x="119" y="348" width="116" height="50" fill="none" rx="14" stroke="#e08214" stroke-width="2"/>
		<line x1="119" y1="373" x2="235" y2="373" stroke="#e08214" stroke-width="1"/>
		<text x="126" y="365.75" fill="#000000" font-family="Verdana" font-size="12">CORRESPONDRE</text>
	</g>
	<text x="255" y="390" fill="#542788" font-family="Verdana" font-size="12">1,1</text>
	<text x="182" y="289" fill="#542788" font-family="Verdana" font-size="12">0,N</text>
</g>

<!-- Entity TOURNEE -->
<g>
	<g>
		<rect x="9" y="43" width="92" height="25" fill="#b2abd2" stroke="none" stroke-width="0" opacity="1"/>
		<rect x="9" y="68" width="92" height="43" fill="#d8daeb" stroke="none" stroke-width="0" opacity="1"/>
		<rect x="9" y="43" width="92" height="68" fill="none" stroke="#8073ac" stroke-width="2" opacity="1"/>
		<line x1="9" y1="68" x2="101" y2="68" stroke="#8073ac" stroke-width="1"/>
	</g>
	<text x="26" y="60.75" fill="#000000" font-family="Verdana" font-size="12">TOURNEE</text>
	<text x="14" y="85.8" fill="#000000" font-family="Verdana" font-size="12">id_Tournee</text>
	<line x1="14" y1="88" x2="83" y2="88" stroke="#000000" stroke-width="1"/>
	<text x="14" y="102.8" fill="#000000" font-family="Verdana" font-size="12">date_collecte</text>
</g>

<!-- Entity POINT_DE_COLLECTE -->
<g>
	<g>
		<rect x="253" y="9" width="144" height="25" fill="#b2abd2" stroke="none" stroke-width="0" opacity="1"/>
		<rect x="253" y="34" width="144" height="111" fill="#d8daeb" stroke="none" stroke-width="0" opacity="1"/>
		<rect x="253" y="9" width="144" height="136" fill="none" stroke="#8073ac" stroke-width="2" opacity="1"/>
		<line x1="253" y1="34" x2="397" y2="34" stroke="#8073ac" stroke-width="1"/>
	</g>
	<text x="258" y="26.75" fill="#000000" font-family="Verdana" font-size="12">POINT_DE_COLLECTE</text>
	<text x="258" y="51.8" fill="#000000" font-family="Verdana" font-size="12">id_point_collecte</text>
	<line x1="258" y1="54" x2="361" y2="54" stroke="#000000" stroke-width="1"/>
	<text x="258" y="68.8" fill="#000000" font-family="Verdana" font-size="12">adresse</text>
	<text x="258" y="85.8" fill="#000000" font-family="Verdana" font-size="12">nom_pt_collecte</text>
	<text x="258" y="102.8" fill="#000000" font-family="Verdana" font-size="12">pos_x</text>
	<text x="258" y="119.8" fill="#000000" font-family="Verdana" font-size="12">pos_y</text>
	<text x="258" y="136.8" fill="#000000" font-family="Verdana" font-size="12">qte_max</text>
</g>

<!-- Entity CATEGORIEDECHET -->
<g>
	<g>
		<rect x="111" y="204" width="132" height="25" fill="#b2abd2" stroke="none" stroke-width="0" opacity="1"/>
		<rect x="111" y="229" width="132" height="43" fill="#d8daeb" stroke="none" stroke-width="0" opacity="1"/>
		<rect x="111" y="204" width="132" height="68" fill="none" stroke="#8073ac" stroke-width="2" opacity="1"/>
		<line x1="111" y1="229" x2="243" y2="229" stroke="#8073ac" stroke-width="1"/>
	</g>
	<text x="116" y="221.75" fill="#000000" font-family="Verdana" font-size="12">CATEGORIEDECHET</text>
	<text x="116" y="246.8" fill="#000000" font-family="Verdana" font-size="12">id_Type</text>
	<line x1="116" y1="249" x2="165" y2="249" stroke="#000000" stroke-width="1"/>
	<text x="116" y="263.8" fill="#000000" font-family="Verdana" font-size="12">nom_Type</text>
</g>

<!-- Entity UTILISATEUR -->
<g>
	<g>
		<rect x="394" y="170" width="108" height="25" fill="#b2abd2" stroke="none" stroke-width="0" opacity="1"/>
		<rect x="394" y="195" width="108" height="111" fill="#d8daeb" stroke="none" stroke-width="0" opacity="1"/>
		<rect x="394" y="170" width="108" height="136" fill="none" stroke="#8073ac" stroke-width="2" opacity="1"/>
		<line x1="394" y1="195" x2="502" y2="195" stroke="#8073ac" stroke-width="1"/>
	</g>
	<text x="407" y="187.75" fill="#000000" font-family="Verdana" font-size="12">UTILISATEUR</text>
	<text x="399" y="212.8" fill="#000000" font-family="Verdana" font-size="12">id_Utilisateur</text>
	<line x1="399" y1="215" x2="480" y2="215" stroke="#000000" stroke-width="1"/>
	<text x="399" y="229.8" fill="#000000" font-family="Verdana" font-size="12">nom_Utilisateur</text>
	<text x="399" y="246.8" fill="#000000" font-family="Verdana" font-size="12">mail</text>
	<text x="399" y="263.8" fill="#000000" font-family="Verdana" font-size="12">numtel</text>
	<text x="399" y="280.8" fill="#000000" font-family="Verdana" font-size="12">motdepasse</text>
	<text x="399" y="297.8" fill="#000000" font-family="Verdana" font-size="12">nom_role</text>
</g>

<!-- Entity DECHET -->
<g>
	<g>
		<rect x="281" y="331" width="88" height="25" fill="#b2abd2" stroke="none" stroke-width="0" opacity="1"/>
		<rect x="281" y="356" width="88" height="59" fill="#d8daeb" stroke="none" stroke-width="0" opacity="1"/>
		<rect x="281" y="331" width="88" height="84" fill="none" stroke="#8073ac" stroke-width="2" opacity="1"/>
		<line x1="281" y1="356" x2="369" y2="356" stroke="#8073ac" stroke-width="1"/>
	</g>
	<text x="300" y="348.75" fill="#000000" font-family="Verdana" font-size="12">DECHET</text>
	<text x="286" y="373.8" fill="#000000" font-family="Verdana" font-size="12">id_Dechet</text>
	<line x1="286" y1="376" x2="348" y2="376" stroke="#000000" stroke-width="1"/>
	<text x="286" y="390.8" fill="#000000" font-family="Verdana" font-size="12">nom_Dechet</text>
	<text x="286" y="407.8" fill="#000000" font-family="Verdana" font-size="12">qte</text>
</g>

<!-- Entity ENTREPRISE -->
<g>
	<g>
		<rect x="525" y="339" width="108" height="25" fill="#b2abd2" stroke="none" stroke-width="0" opacity="1"/>
		<rect x="525" y="364" width="108" height="43" fill="#d8daeb" stroke="none" stroke-width="0" opacity="1"/>
		<rect x="525" y="339" width="108" height="68" fill="none" stroke="#8073ac" stroke-width="2" opacity="1"/>
		<line x1="525" y1="364" x2="633" y2="364" stroke="#8073ac" stroke-width="1"/>
	</g>
	<text x="541" y="356.75" fill="#000000" font-family="Verdana" font-size="12">ENTREPRISE</text>
	<text x="530" y="381.8" fill="#000000" font-family="Verdana" font-size="12">id_Entreprise</text>
	<line x1="530" y1="384" x2="611" y2="384" stroke="#000000" stroke-width="1"/>
	<text x="530" y="398.8" fill="#000000" font-family="Verdana" font-size="12">nom_Entreprise</text>
</g>
</svg>